<?xml version="1.0" encoding="UTF-8" standalone="no"?>
<svg xmlns:rdf="http://www.w3.org/1999/02/22-rdf-syntax-ns#" xmlns="http://www.w3.org/2000/svg" xml:space="preserve" overflow="visible" height="120" viewBox="0 0 120 120" width="120" version="1.0" enable-background="new 0 0 85.039 85.039" xmlns:cc="http://creativecommons.org/ns#" xmlns:xlink="http://www.w3.org/1999/xlink" xmlns:dc="http://purl.org/dc/elements/1.1/"><defs><linearGradient id="linearGradient4101"><stop offset="0"/><stop stop-color="#fff" stop-opacity="0" offset="1"/></linearGradient><linearGradient id="linearGradient3126" gradientUnits="userSpaceOnUse" x2="-57.286" gradientTransform="matrix(-1 0 0 1 25.312 0)" y1="89.223" x1="-57.286"><stop offset="0"/><stop stop-opacity="0" offset="1"/></linearGradient><linearGradient id="linearGradient4085" xlink:href="#linearGradient4101" gradientUnits="userSpaceOnUse" x2="2.4435" y1="85.039" x1="2.4435"/><linearGradient id="linearGradient4107" y2="9.5574" xlink:href="#linearGradient4101" gradientUnits="userSpaceOnUse" x2="54.771" gradientTransform="matrix(1.3876 0 0 .67114 -16 82.282)" y1="52.978" x1="54.771"/><linearGradient id="linearGradient4117" y2="88.76" gradientUnits="userSpaceOnUse" x2="63.959" gradientTransform="matrix(1.3003 0 0 1.2927 -23.166 -5.9085)" y1="-12.562" x1="63.959"><stop stop-color="#fff" offset="0"/><stop stop-color="#fff" stop-opacity="0" offset="1"/></linearGradient></defs>
<path id="bgColor00" fill="#003380" d="m0 0v120h120v-120h-120z"/><path opacity=".2" d="m120 0h-120v120h120v-120zm-117.18 2.8208h114.36v114.36h-114.36v-114.36z" fill="#4d4d4d"/><polygon opacity=".25" transform="matrix(1.4111 0 0 1.4111 0 .0000044292)" points="0 85.039 4.831 80.617 4.887 4.767 0 0" fill="url(#linearGradient4085)"/><polygon opacity=".2" transform="matrix(1.4111 0 0 1.4111 .0000044292 .0000044292)" points="85.039 85.039 80.215 80.617 80.158 4.767 85.039 0" fill="url(#linearGradient3126)"/>
<rect opacity=".25" height="36.033" width="114" y="81.805" x="3" fill="url(#linearGradient4107)"/><rect height="57.293" width="117.6" y="1.0895" x="1.1983" fill="url(#linearGradient4117)"/></svg>
