<?xml version="1.0" encoding="UTF-8" standalone="no"?>
<svg xmlns:rdf="http://www.w3.org/1999/02/22-rdf-syntax-ns#" xmlns="http://www.w3.org/2000/svg" xml:space="preserve" height="123" viewBox="0 0 123 123" width="123" version="1.0" enable-background="new 0 0 85.039 85.039" xmlns:cc="http://creativecommons.org/ns#" xmlns:xlink="http://www.w3.org/1999/xlink" overflow="visible" xmlns:dc="http://purl.org/dc/elements/1.1/"><defs><linearGradient id="linearGradient16355" gradientUnits="userSpaceOnUse" y1="89.223" gradientTransform="matrix(-.85230 0 0 1 34.134 0)" x2="-57.286" x1="-57.286"><stop offset="0"/><stop stop-opacity="0" offset="1"/></linearGradient><linearGradient id="linearGradient16441" gradientUnits="userSpaceOnUse" y1="85.039" gradientTransform="scale(.85246 1)" x2="2.4435" x1="2.4435"><stop offset="0"/><stop stop-color="#fff" stop-opacity="0" offset="1"/></linearGradient></defs>
<path id="bgColor00" d="m1.5 1.5v120h120v-120h-120z" fill="#003380"/><path opacity=".2" d="m121.5 1.5h-120v120h120v-120zm-117.18 2.8208h114.36v114.36h-114.36v-114.36z" fill="#4d4d4d"/><polygon opacity=".25" points="0 0 0 85.039 4.831 80.617 4.887 4.767" transform="matrix(1.6553 0 0 1.4111 1.5 1.5)" fill="url(#linearGradient16441)"/><polygon opacity=".2" points="80.215 80.617 80.158 4.767 85.039 0 85.039 85.039" transform="matrix(1.6556 0 0 1.4111 -19.295 1.5)" fill="url(#linearGradient16355)"/><path opacity=".2" d="m4.7812 4.4688l2.5 2.5h108.66l2.44-2.4376v-0.0624h-113.6z" fill-opacity=".75" fill-rule="evenodd" fill="#fff"/><path opacity=".35" d="m0 0v123h123v-123h-123zm5.5938 5.6562h111.81v111.69h-111.81v-111.69z" fill-rule="evenodd"/><path opacity=".25" d="m0 0v123h123v-123h-123zm5.375 5.375h112.24v112.24h-112.24l-0.005-112.24z" fill-rule="evenodd"/></svg>
